# xmcd
#
# Track frame offsets: 
#        150
#        14822
#        32306
#        45741
#        54291
#        73478
#        112548
#        125631
#        138838
#        153161
#        168836
#        181676
#        192433
#        211686
#        224356
#        235708
#
# Disc length: 3405 seconds
#
# Revision: 0
# Processed by: cddbd v1.5PL3 Copyright (c) Steve Scherf et al.
# Submitted via: ExactAudioCopy v0.95a3
#
DISCID=d10d4b10
DTITLE=Various Artist - Country Hits
DYEAR=2000
DGENRE=Country
TTITLE0=Bellamy Brothers - Lovers Live Longer
TTITLE1=Bellamy Brothers - For All The Wrong Reasons
TTITLE2=Johnny Lee - Lookin' For Love
TTITLE3=Johnny Lee - Pickin' Up Strangers
TTITLE4=Commander Cody - Hot Rod Lincoln
TTITLE5=Commander Cody - Eight To The Bar
TTITLE6=Mickey Gilley - Room Full Of Roses
TTITLE7=Mickey Gilley - Don't The Girls All Get Prettier At Closing Ti
TTITLE7=me
TTITLE8=Jerry Lee Lewis - Whole Lotta Shakin' Goin' On
TTITLE9=Jerry Lee Lewis - Wine, Spo-Dee-O-Dee, Drinkin' Wine
TTITLE10=Dave and Sugar - Tear Time
TTITLE11=Dave and Sugar - I'm Knee Deep In Loving You
TTITLE12=Carl Perkins - Blue Suede Shoes
TTITLE13=Carl Perkins - (Let's Get) Dixie Fried
TTITLE14=Bellamy Brothers - Let Your Love Flow
TTITLE15=Bellamy Brothers - If I Said You Had A Beautiful Body Would Y
TTITLE15=ou Hold It Against Me
EXTD=
EXTT0=
EXTT1=
EXTT2=
EXTT3=
EXTT4=
EXTT5=
EXTT6=
EXTT7=
EXTT8=
EXTT9=
EXTT10=
EXTT11=
EXTT12=
EXTT13=
EXTT14=
EXTT15=
PLAYORDER=
